<svg xmlns="http://www.w3.org/2000/svg" width="109" height="109" viewBox="0 0 109 109">
  <g id="Group_1" data-name="Group 1" transform="translate(-226.333 -5.333)">
    <rect id="Rectangle_2" data-name="Rectangle 2" width="88.072" height="88.072" rx="10" transform="translate(250.698 5.333) rotate(16.06)" fill="#b2b3b3"/>
    <rect id="Rectangle_3" data-name="Rectangle 3" width="88.956" height="88.956" rx="10" transform="translate(234.827 14.392)" fill="#0073bd"/>
    <path id="Path_1" data-name="Path 1" d="M8149.97,9941.745a13.27,13.27,0,0,1-2.13,7.373,14.033,14.033,0,0,1-6.191,5.143,29.867,29.867,0,0,1-9.57,2.214c-4.477.432-8.654-.384-11.566-2.629a19.993,19.993,0,0,1-2.962-2.83,2.552,2.552,0,0,1-.3-.3l-.25-.383c-.4-.516-.766-1.049-1.132-1.614a12.536,12.536,0,0,1-.632-1.1l-16.144-24.814v27.428h5.825a3.493,3.493,0,0,1,3.611,3.328h0a3.48,3.48,0,0,1-3.611,3.313h-17.825a3.484,3.484,0,0,1-3.628-3.312h0a3.5,3.5,0,0,1,3.628-3.328h4.327v-33.087h-5.592a3.532,3.532,0,1,1,0-7.04h11.583a4.742,4.742,0,0,1,1.532,0h.149v.034a3.847,3.847,0,0,1,2.463,1.615l19.838,29.257a9.584,9.584,0,0,1,.565.982c.083.149.183.283.266.433,3.729,6.508,9.637,9.9,16.127,5.061a5.718,5.718,0,0,0,2.546-4.744,5.029,5.029,0,0,0-1.365-3.679,9,9,0,0,0-3.578-2.146,56.087,56.087,0,0,0-5.825-1.581,43.582,43.582,0,0,1-8.172-2.68,13.216,13.216,0,0,1-5.226-4.178,10.865,10.865,0,0,1-1.931-6.574,11.307,11.307,0,0,1,2.047-6.656,12.872,12.872,0,0,1,5.909-4.46,24.017,24.017,0,0,1,9.086-1.565,22.791,22.791,0,0,1,7.223,1.033,15.407,15.407,0,0,1,5.06,2.763,11.476,11.476,0,0,1,2.929,3.595,8.422,8.422,0,0,1,.932,3.694,4.406,4.406,0,0,1-1.165,2.945,3.685,3.685,0,0,1-2.9,1.315,3.378,3.378,0,0,1-2.4-.782,10.609,10.609,0,0,1-1.764-2.6,11.916,11.916,0,0,0-2.979-4.011c-1.149-.949-3.013-1.431-5.575-1.431a9.527,9.527,0,0,0-5.726,1.563,4.551,4.551,0,0,0-2.2,3.762,3.8,3.8,0,0,0,.749,2.347,5.988,5.988,0,0,0,2.047,1.7,13.851,13.851,0,0,0,2.629,1.132c.882.266,2.347.648,4.394,1.165a70.707,70.707,0,0,1,6.94,1.98,21.211,21.211,0,0,1,5.292,2.63,10.828,10.828,0,0,1,3.4,3.91A12.54,12.54,0,0,1,8149.97,9941.745Zm-56-49.745a6.782,6.782,0,1,1-6.791,6.773A6.768,6.768,0,0,1,8093.966,9892Z" transform="translate(-7836.671 -9865.575)" fill="#fefefe"/>
  </g>
</svg>
